<svg xmlns="http://www.w3.org/2000/svg" xmlns:xlink="http://www.w3.org/1999/xlink" preserveAspectRatio="xMidYMid" width="13" height="12" viewBox="0 0 13 12">
  <defs>
    <style>
      .cls-1 {
        fill: #a7b8cd;
        fill-rule: evenodd;
      }
    </style>
  </defs>
  <path d="M12.000,12.000 L1.000,12.000 C0.447,12.000 -0.000,11.552 -0.000,11.000 L-0.000,2.000 C-0.000,1.447 0.447,1.000 1.000,1.000 L2.000,1.000 C2.000,0.447 2.447,-0.000 3.000,-0.000 C3.552,-0.000 4.000,0.447 4.000,1.000 L9.000,1.000 C9.000,0.447 9.447,-0.000 10.000,-0.000 C10.552,-0.000 11.000,0.447 11.000,1.000 L12.000,1.000 C12.552,1.000 13.000,1.447 13.000,2.000 L13.000,11.000 C13.000,11.552 12.552,12.000 12.000,12.000 ZM11.000,3.000 L2.000,3.000 L2.000,10.000 L11.000,10.000 L11.000,3.000 ZM5.000,5.000 L4.000,5.000 L4.000,4.000 L5.000,4.000 L5.000,5.000 ZM5.000,7.000 L4.000,7.000 L4.000,6.000 L5.000,6.000 L5.000,7.000 ZM5.000,9.000 L4.000,9.000 L4.000,8.000 L5.000,8.000 L5.000,9.000 ZM7.000,5.000 L6.000,5.000 L6.000,4.000 L7.000,4.000 L7.000,5.000 ZM7.000,7.000 L6.000,7.000 L6.000,6.000 L7.000,6.000 L7.000,7.000 ZM7.000,9.000 L6.000,9.000 L6.000,8.000 L7.000,8.000 L7.000,9.000 ZM9.000,5.000 L8.000,5.000 L8.000,4.000 L9.000,4.000 L9.000,5.000 ZM9.000,7.000 L8.000,7.000 L8.000,6.000 L9.000,6.000 L9.000,7.000 ZM9.000,9.000 L8.000,9.000 L8.000,8.000 L9.000,8.000 L9.000,9.000 Z" class="cls-1"/>
</svg>
