<svg data-name="Layer 1" xmlns="http://www.w3.org/2000/svg" viewBox="0 0 30 19"><path d="M27-.01H13c-1.86 0-2.87.82-2.87 3l.87.21v12.44c0 1.11 1.81 1.35 3 1.35h9a2 2 0 0 1-2-2h-9v-13h16v13h-3a2 2 0 0 1-2 2h4c2.21 0 3-.79 3-3v-11c0-2.2-.79-3-3-3z"/><path d="M12 9.99h16v1H12v-1zm11 2a3 3 0 0 0-3 3 2.07 2.07 0 0 0 0 .5 2.93 2.93 0 0 0 .72 1.5 3 3 0 0 0 2.23 1 2.94 2.94 0 0 0 2.23-1 2.78 2.78 0 0 0 .72-1.5 2.07 2.07 0 0 0 0-.5 3 3 0 0 0-2.9-3zm-2 3a2 2 0 0 1 1.77-2 1.33 1.33 0 0 1 .46 0 2 2 0 1 1-2.23 2z"/><path d="M25.95 15.5a2.15 2.15 0 0 0-.12-.5 3 3 0 0 0-2.6-2 2 2 0 1 1-.46 0 3 3 0 0 0-2.59 2 1.76 1.76 0 0 0-.13.5 2.07 2.07 0 0 0 0 .5 2.77 2.77 0 0 0 .18 1 3 3 0 0 0 5.82-1 2.07 2.07 0 0 0-.1-.5zM6 4.99h5.78v-2H5S.19 8.89 0 9.6v4.39c.52 2.18 4 3 4 3h3a2 2 0 0 1-2-2H2v-5zm8.25 12l-3.25-2H9a2 2 0 0 1-2 2h7.25z"/><path d="M10 5.99H7l-3 4h6v-4zm-3 6a3 3 0 0 0-3 3 2.07 2.07 0 0 0 0 .5 2.93 2.93 0 0 0 .72 1.5 3 3 0 0 0 2.23 1 2.94 2.94 0 0 0 2.23-1 2.78 2.78 0 0 0 .72-1.5 2.07 2.07 0 0 0 0-.5 3 3 0 0 0-2.9-3zm-2 3a2 2 0 0 1 1.77-2 1.33 1.33 0 0 1 .46 0 2 2 0 1 1-2.23 2z"/><path d="M9.95 15.5a2.15 2.15 0 0 0-.12-.5 3 3 0 0 0-2.6-2 2 2 0 1 1-.46 0 3 3 0 0 0-2.59 2 1.76 1.76 0 0 0-.13.5 2.07 2.07 0 0 0 0 .5 2.77 2.77 0 0 0 .18 1 3 3 0 0 0 5.82-1 2.07 2.07 0 0 0-.1-.5z"/></svg>