<svg xmlns="http://www.w3.org/2000/svg" width="512" height="526.05" viewBox="0.328 0 512 526.05"><path d="M482.842 308.102c-16.287 0-29.486 13.194-29.486 29.486v129.488H59.302V337.588c0-16.292-13.188-29.486-29.486-29.486C13.53 308.102.33 321.296.33 337.588v158.975c0 16.287 13.2 29.487 29.486 29.487h453.026c16.287 0 29.487-13.2 29.487-29.487V337.588c0-16.292-13.2-29.486-29.488-29.486z"/><path d="M235.473 374.613a29.506 29.506 0 0 0 20.854 8.64 29.412 29.412 0 0 0 20.845-8.64l118.903-118.905c11.518-11.51 11.518-30.18 0-41.693-11.507-11.52-30.19-11.52-41.696 0l-68.57 68.568V29.487C285.81 13.197 272.61 0 256.328 0 240.04 0 226.84 13.197 226.84 29.487v253.09l-68.55-68.557c-11.52-11.52-30.195-11.513-41.702-.006-11.507 11.52-11.507 30.19-.006 41.7l118.89 118.9z"/></svg>