<svg viewBox="0 0 128 128" height="128" width="128" xmlns="http://www.w3.org/2000/svg"><path fill="#D95032" d="M0 0h128v128H0z"/><path fill="#fff" d="M49.21 70.99h16.884c-1.94 7.84-7.912 12.214-17.035 12.214-10.782 0-19.555-8.616-19.555-19.203 0-10.588 8.773-19.204 19.554-19.204 4.715 0 9.268 1.67 12.82 4.707l8.117-9.162c-5.803-4.957-13.24-7.688-20.937-7.688-17.6 0-31.917 14.063-31.917 31.348 0 17.284 14.317 31.347 31.917 31.347 17.995 0 30.083-12.23 30.083-30.428v-6.074H49.21V70.99zm67.933-12.25h-11v-11h-8v11h-11v8h11v11h8v-11h11z"/></svg>