<svg data-name="Layer 1" xmlns="http://www.w3.org/2000/svg" viewBox="0 0 16 15"><path d="M8.01 15c-8.53-6.19-8-10-8-10a4.77 4.77 0 0 1 4.5-5 3.94 3.94 0 0 1 3.5 1.42A3.94 3.94 0 0 1 11.51 0a4.77 4.77 0 0 1 4.5 5s.5 3.81-8 10zm0-2.23c3.63-3.07 5.56-5.38 5.87-6.9a3.51 3.51 0 0 0 .09-.56v-.56a3.35 3.35 0 0 0-.48-1.54 2.88 2.88 0 0 0-.28-.37l-.07-.07a2.62 2.62 0 0 0-.28-.26l-.15-.1a2.39 2.39 0 0 0-.26-.16l-.25-.1-.2-.07a2.1 2.1 0 0 0-.49-.08 1.8 1.8 0 0 0-.42.08L11.01 2c-2.22 0-3 2.5-3 2.5S7.23 2 5.01 2l-.05.05A2 2 0 0 0 4.51 2a2.1 2.1 0 0 0-.49.06l-.2.07-.26.1a2.4 2.4 0 0 0-.26.16l-.15.1a2.57 2.57 0 0 0-.28.26l-.07.07a2.91 2.91 0 0 0-.28.37 3.35 3.35 0 0 0-.48 1.54v.56a3.49 3.49 0 0 0 .09.56C2.45 7.37 4.5 9.78 8 12.75"/></svg>