<svg id="Layer_1" data-name="Layer 1" xmlns="http://www.w3.org/2000/svg" viewBox="0 0 33.98 43.99"><defs><style>.cls-1{fill-rule:evenodd;}</style></defs><title>hit</title><path class="cls-1" d="M721.58,976.05c0.69,0.25,1.72,3.55,1.75,6.48,0,5.08-1.21,8.05,2.52,11,0.43,0.34-.17-1.73.05-4.15,0.19-2.06,1.92-4.68,1.86-4.27a9,9,0,0,0,1.18,5.37c5.17,6.44,6.74,12.17,6.74,16.07,0,7.43-7.61,13.45-17,13.45s-17-6-17-13.45c0-2.94,1.19-9.7,3.22-11.92,0.21-.23-0.11.31-0.14,0.84-0.08,1.46-.14,4.33,2.42,4.31,3.18,0,1.79-5.8,4.1-10.81,3-6.57,8.7-3.76,10.28-12.74C721.63,976,721.39,976,721.58,976.05Z" transform="translate(-701.7 -976.01)"/></svg>