<?xml version="1.0" encoding="utf-8"?>
<!-- Generated by IcoMoon.io -->
<!DOCTYPE svg PUBLIC "-//W3C//DTD SVG 1.1//EN" "http://www.w3.org/Graphics/SVG/1.1/DTD/svg11.dtd">
<svg version="1.1" xmlns="http://www.w3.org/2000/svg" xmlns:xlink="http://www.w3.org/1999/xlink" width="32" height="32" viewBox="0 0 32 32">
<path d="M29.826 17.885c0.628-0.949 0.942-1.994 0.942-3.135 0-1.321-0.487-2.468-1.461-3.443-0.975-0.974-2.128-1.461-3.462-1.461h-3.385c0.615-1.269 0.923-2.5 0.923-3.692 0-1.5-0.225-2.692-0.673-3.577s-1.103-1.535-1.962-1.952c-0.859-0.417-1.827-0.625-2.904-0.625-0.654 0-1.231 0.237-1.731 0.712-0.551 0.538-0.949 1.231-1.192 2.077s-0.439 1.657-0.587 2.433c-0.147 0.776-0.375 1.324-0.683 1.644-0.628 0.679-1.314 1.5-2.058 2.462-1.295 1.679-2.173 2.673-2.634 2.981h-5.269c-0.679 0-1.26 0.241-1.74 0.721s-0.721 1.061-0.721 1.74v12.307c0 0.68 0.24 1.259 0.721 1.74s1.061 0.721 1.74 0.721h5.538c0.282 0 1.167 0.256 2.654 0.769 1.577 0.551 2.965 0.971 4.163 1.26s2.413 0.433 3.644 0.433h2.481c1.808 0 3.262-0.516 4.365-1.548s1.647-2.439 1.635-4.221c0.769-0.987 1.154-2.128 1.154-3.423 0-0.282-0.019-0.558-0.058-0.827 0.487-0.859 0.731-1.782 0.731-2.769-0-0.462-0.058-0.904-0.173-1.327zM5.789 26.711c-0.244 0.243-0.532 0.366-0.865 0.366s-0.622-0.122-0.865-0.366c-0.244-0.243-0.365-0.532-0.365-0.866s0.122-0.622 0.365-0.865c0.244-0.244 0.532-0.365 0.865-0.365s0.622 0.122 0.865 0.365c0.244 0.244 0.365 0.532 0.365 0.865s-0.122 0.622-0.365 0.866zM27.894 16.328c-0.276 0.59-0.619 0.891-1.029 0.904 0.192 0.218 0.353 0.523 0.481 0.913s0.192 0.747 0.192 1.067c0 0.884-0.339 1.647-1.019 2.288 0.231 0.41 0.346 0.853 0.346 1.327s-0.112 0.946-0.337 1.413c-0.224 0.467-0.529 0.804-0.913 1.009 0.064 0.385 0.096 0.744 0.096 1.077 0 2.141-1.231 3.211-3.693 3.211h-2.326c-1.68 0-3.872-0.468-6.577-1.404-0.064-0.026-0.25-0.093-0.558-0.202s-0.535-0.189-0.683-0.24c-0.148-0.052-0.372-0.125-0.673-0.221s-0.545-0.167-0.731-0.212c-0.186-0.045-0.397-0.086-0.634-0.125s-0.439-0.058-0.606-0.058h-0.615v-12.307h0.615c0.205 0 0.433-0.058 0.683-0.173s0.507-0.288 0.769-0.519c0.263-0.231 0.509-0.458 0.74-0.683s0.487-0.506 0.769-0.846c0.282-0.34 0.503-0.612 0.663-0.817s0.362-0.468 0.606-0.789c0.243-0.32 0.391-0.513 0.442-0.577 0.705-0.872 1.199-1.455 1.481-1.75 0.526-0.551 0.907-1.253 1.144-2.106s0.433-1.657 0.586-2.413c0.154-0.756 0.398-1.301 0.731-1.635 1.23 0 2.051 0.301 2.461 0.904s0.615 1.532 0.615 2.788c0 0.756-0.308 1.785-0.923 3.086s-0.923 2.324-0.923 3.067h6.769c0.642 0 1.212 0.247 1.712 0.741s0.751 1.067 0.751 1.721c-0 0.449-0.138 0.968-0.414 1.558z"></path>
</svg>
