<svg viewBox="0 0 128 128" height="128" width="128" xmlns="http://www.w3.org/2000/svg"><path fill="#55ACEE" d="M0 0h128v128H0z"/><path fill="#FFF" d="M109 37.71a35.995 35.995 0 0 1-10.37 2.842 18.103 18.103 0 0 0 7.938-9.988 36.133 36.133 0 0 1-11.465 4.38 18.028 18.028 0 0 0-13.176-5.7c-9.973 0-18.056 8.082-18.056 18.052 0 1.416.16 2.792.47 4.115-15.008-.752-28.31-7.94-37.214-18.862a17.966 17.966 0 0 0-2.445 9.076c0 6.263 3.19 11.79 8.033 15.027a17.977 17.977 0 0 1-8.178-2.26c-.002.077-.002.153-.002.23 0 8.75 6.223 16.04 14.482 17.702a18.11 18.11 0 0 1-8.153.308c2.298 7.173 8.966 12.395 16.865 12.54a36.233 36.233 0 0 1-22.422 7.725A36.23 36.23 0 0 1 21 92.645a51.1 51.1 0 0 0 27.676 8.112c33.207 0 51.367-27.51 51.367-51.368 0-.782-.02-1.562-.053-2.335A36.558 36.558 0 0 0 109 37.71"/></svg>