<svg viewBox="0 0 512 512" height="512" width="512" xmlns="http://www.w3.org/2000/svg"><path fill="#4c75a3" d="M0 0h512v512H0z"/><path fill="#fff" d="M251.71 369.145h23.907s7.22-.798 10.91-4.77c3.397-3.65 3.288-10.5 3.288-10.5s-.47-32.082 14.42-36.804c14.68-4.654 33.527 31.004 53.504 44.714 15.106 10.376 26.587 8.104 26.587 8.104l53.418-.743s27.937-1.726 14.69-23.698c-1.084-1.793-7.72-16.25-39.716-45.95-33.504-31.093-29.013-26.06 11.336-79.837 24.57-32.75 34.397-52.74 31.324-61.305-2.926-8.157-20.998-6.006-20.998-6.006l-60.147.375s-4.457-.61-7.765 1.37c-3.23 1.935-5.305 6.453-5.305 6.453s-9.528 25.342-22.22 46.895c-26.777 45.474-37.488 47.88-41.865 45.05-10.184-6.58-7.637-26.433-7.637-40.543 0-44.072 6.684-62.45-13.02-67.204-6.54-1.58-11.354-2.626-28.076-2.795-21.458-.217-39.623.07-49.905 5.105-6.842 3.36-12.124 10.818-8.903 11.25 3.974.53 12.975 2.425 17.746 8.922 6.164 8.387 5.948 27.216 5.948 27.216s3.544 51.88-8.27 58.32c-8.11 4.423-19.23-4.6-43.11-45.86-12.23-21.13-21.467-44.497-21.467-44.497s-1.777-4.36-4.957-6.7c-3.854-2.834-9.24-3.73-9.24-3.73l-57.156.37s-8.58.244-11.725 3.976c-2.81 3.32-.226 10.182-.226 10.182s44.742 104.685 95.407 157.44c46.47 48.38 99.22 45.2 99.22 45.2z"/></svg>